<svg width="151" height="54" viewBox="0 0 151 54" fill="none" xmlns="http://www.w3.org/2000/svg">
<rect x="0.543945" width="150.116" height="54" rx="5" fill="#16CACE"/>
<path d="M53.0104 33.8235H54.9104L56.3704 30.3435H63.4504L64.8904 33.8235H66.8504L60.8304 19.6635H59.2504L53.0104 33.8235ZM62.8104 28.7835H57.0304L59.9704 21.8235H60.0104L62.8104 28.7835ZM76.2324 33.8235H77.7924V18.7035H76.2324V25.8235H76.1924C75.3324 24.8235 74.1924 24.2235 72.8324 24.2235C69.8924 24.2235 67.9124 26.3035 67.9124 29.1435C67.9124 31.9435 69.9724 34.0635 72.5924 34.0635C74.2724 34.0635 75.6124 33.2235 76.1924 32.1635H76.2324V33.8235ZM76.2324 29.1435C76.2324 31.1035 74.9324 32.6235 72.9124 32.6235C70.8924 32.6235 69.5924 31.1035 69.5924 29.1435C69.5924 27.1835 70.8924 25.6635 72.9124 25.6635C74.9324 25.6635 76.2324 27.1835 76.2324 29.1435ZM88.459 33.8235H90.019V18.7035H88.459V25.8235H88.419C87.559 24.8235 86.419 24.2235 85.059 24.2235C82.119 24.2235 80.139 26.3035 80.139 29.1435C80.139 31.9435 82.199 34.0635 84.819 34.0635C86.499 34.0635 87.839 33.2235 88.419 32.1635H88.459V33.8235ZM88.459 29.1435C88.459 31.1035 87.159 32.6235 85.139 32.6235C83.119 32.6235 81.819 31.1035 81.819 29.1435C81.819 27.1835 83.119 25.6635 85.139 25.6635C87.159 25.6635 88.459 27.1835 88.459 29.1435Z" fill="white"/>
</svg>
