<svg width="47" height="47" viewBox="0 0 47 47" fill="none" xmlns="http://www.w3.org/2000/svg">
<path d="M34.5646 12.4355C33.1152 10.9762 31.3913 9.81826 29.4923 9.02841C27.5933 8.23856 25.5567 7.83241 23.5 7.83338C14.8442 7.83338 7.85294 14.8442 7.85294 23.5C7.85294 32.1559 14.8442 39.1667 23.5 39.1667C30.8046 39.1667 36.895 34.173 38.6379 27.4167H34.5646C33.7579 29.707 32.2603 31.6905 30.2785 33.0936C28.2967 34.4967 25.9282 35.2501 23.5 35.25C17.0179 35.25 11.75 29.9821 11.75 23.5C11.75 17.018 17.0179 11.75 23.5 11.75C26.7509 11.75 29.6492 13.1013 31.7642 15.2359L25.4584 21.5417H39.1667V7.83338L34.5646 12.4355Z" fill="#16CACF"/>
</svg>
