<svg width="33" height="35" viewBox="0 0 33 35" fill="none" xmlns="http://www.w3.org/2000/svg">
<path d="M31.1667 0H1.83333C1.3471 0 0.880788 0.19408 0.536971 0.539544C0.193155 0.885009 0 1.35356 0 1.84212V6.61321C0 7.57664 0.3905 8.52349 1.06883 9.20507L11 19.1838V33.1582C11.0004 33.472 11.0804 33.7806 11.2326 34.0546C11.3849 34.3287 11.6042 34.5592 11.8698 34.7243C12.1355 34.8894 12.4386 34.9836 12.7507 34.998C13.0627 35.0125 13.3732 34.9467 13.6528 34.8069L20.9862 31.1226C21.6077 30.8095 22 30.1721 22 29.4739V19.1838L31.9312 9.20507C32.6095 8.52349 33 7.57664 33 6.61321V1.84212C33 1.35356 32.8068 0.885009 32.463 0.539544C32.1192 0.19408 31.6529 0 31.1667 0ZM18.8705 17.1188C18.6999 17.2896 18.5646 17.4926 18.4725 17.7161C18.3803 17.9396 18.333 18.1792 18.3333 18.4212V28.3355L14.6667 30.1776V18.4212C14.667 18.1792 14.6197 17.9396 14.5275 17.7161C14.4354 17.4926 14.3001 17.2896 14.1295 17.1188L3.66667 6.61321V3.68424H29.3352L29.3388 6.60032L18.8705 17.1188Z" fill="#16CACE"/>
</svg>
