<svg width="47" height="47" viewBox="0 0 47 47" fill="none" xmlns="http://www.w3.org/2000/svg">
<path d="M25.2613 23.4929L38.4871 10.2542C38.7204 10.0197 38.8513 9.70231 38.8511 9.37152C38.8509 9.04072 38.7195 8.7235 38.4859 8.48933C38.0183 8.02403 37.1946 8.02168 36.7222 8.49168L23.5 21.7304L10.273 8.48816C9.80299 8.02403 8.97931 8.02638 8.51166 8.49051C8.39559 8.60612 8.3037 8.74369 8.24136 8.8952C8.17902 9.0467 8.14749 9.20911 8.14859 9.37293C8.14859 9.70663 8.27784 10.0192 8.51166 10.2507L21.7375 23.4917L8.51284 36.734C8.27947 36.9688 8.14877 37.2866 8.14944 37.6177C8.1501 37.9488 8.28205 38.2661 8.51636 38.5C8.74314 38.7244 9.06391 38.8537 9.39526 38.8537H9.40231C9.73484 38.8525 10.0556 38.7221 10.2777 38.4953L23.5 25.2566L36.7269 38.4988C36.9608 38.7315 37.2733 38.8607 37.6047 38.8607C37.7685 38.8612 37.9308 38.8293 38.0823 38.7668C38.2338 38.7043 38.3714 38.6125 38.4872 38.4966C38.6031 38.3808 38.6949 38.2432 38.7574 38.0917C38.8199 37.9402 38.8518 37.7779 38.8513 37.6141C38.8513 37.2815 38.7221 36.9678 38.4871 36.7363L25.2613 23.4929Z" fill="#16CACF"/>
</svg>
