<svg width="37" height="36" viewBox="0 0 37 36" fill="none" xmlns="http://www.w3.org/2000/svg">
<path d="M10.7215 18C13.5174 18 15.784 15.7334 15.784 12.9375C15.784 10.1416 13.5174 7.875 10.7215 7.875C7.92555 7.875 5.659 10.1416 5.659 12.9375C5.659 15.7334 7.92555 18 10.7215 18Z" fill="#828282"/>
<path d="M16.4871 20.8125C14.5071 19.807 12.3218 19.4062 10.7215 19.4062C7.58697 19.4062 1.159 21.3286 1.159 25.1719V28.125H11.7059V26.9951C11.7059 25.6591 12.2684 24.3197 13.2527 23.2031C14.0381 22.3116 15.1378 21.484 16.4871 20.8125Z" fill="#828282"/>
<path d="M23.9402 20.25C20.2791 20.25 12.9715 22.5113 12.9715 27V30.375H34.909V27C34.909 22.5113 27.6014 20.25 23.9402 20.25Z" fill="#828282"/>
<path d="M23.9402 18C27.3575 18 30.1277 15.2298 30.1277 11.8125C30.1277 8.39524 27.3575 5.625 23.9402 5.625C20.523 5.625 17.7527 8.39524 17.7527 11.8125C17.7527 15.2298 20.523 18 23.9402 18Z" fill="#828282"/>
</svg>
