<svg width="22" height="21" viewBox="0 0 22 21" fill="none" xmlns="http://www.w3.org/2000/svg">
<path d="M6.59592 10.5C8.23196 10.5 9.55823 9.17784 9.55823 7.54688C9.55823 5.91591 8.23196 4.59375 6.59592 4.59375C4.95988 4.59375 3.63361 5.91591 3.63361 7.54688C3.63361 9.17784 4.95988 10.5 6.59592 10.5Z" fill="#828282"/>
<path d="M9.96965 12.1406C8.81105 11.5541 7.53232 11.3203 6.5959 11.3203C4.76174 11.3203 1.00043 12.4417 1.00043 14.6836V16.4062H7.17191V15.7471C7.17191 14.9678 7.50105 14.1865 8.07706 13.5352C8.53663 13.0151 9.18011 12.5323 9.96965 12.1406Z" fill="#828282"/>
<path d="M14.3309 11.8125C12.1886 11.8125 7.91254 13.1316 7.91254 15.75V17.7188H20.7492V15.75C20.7492 13.1316 16.4732 11.8125 14.3309 11.8125Z" fill="#828282"/>
<path d="M14.3309 10.5C16.3305 10.5 17.9515 8.88403 17.9515 6.89062C17.9515 4.89722 16.3305 3.28125 14.3309 3.28125C12.3313 3.28125 10.7103 4.89722 10.7103 6.89062C10.7103 8.88403 12.3313 10.5 14.3309 10.5Z" fill="#828282"/>
</svg>
