<svg width="61" height="65" viewBox="0 0 61 65" fill="none" xmlns="http://www.w3.org/2000/svg">
<g clip-path="url(#clip0)">
<path d="M56.2794 23.2524H54.6509V15.7204C54.6496 15.6725 54.6448 15.6248 54.6365 15.5776C54.6388 15.275 54.5261 14.982 54.3195 14.7533L41.2485 0.437508L41.2389 0.428298C41.1606 0.347229 41.0718 0.276042 40.9747 0.216451L40.8883 0.165792C40.8052 0.12153 40.7175 0.0860152 40.6265 0.0598686L40.5544 0.0368424C40.4546 0.012989 40.3522 0.000621284 40.2494 0H8.11966C6.65212 0 5.4608 1.14443 5.4608 2.54906V23.2501H3.83234C1.73311 23.2501 0.0325928 24.8804 0.0325928 26.893V45.8394C0.0325928 47.8497 1.73551 49.4823 3.83234 49.4823H5.4608V62.4509C5.4608 63.8556 6.65212 65 8.11966 65H51.9921C53.4572 65 54.6509 63.8556 54.6509 62.4509V49.4823H56.2794C58.3762 49.4823 60.0791 47.852 60.0791 45.8394V26.893C60.0791 24.8827 58.3786 23.2524 56.2794 23.2524ZM8.11966 2.54906H38.9187V15.5914C38.9187 16.2961 39.5144 16.8648 40.2494 16.8648H51.9945V23.2501H8.11966V2.54906ZM28.0119 37.4761C24.7838 36.3708 22.6533 34.6576 22.6533 31.952C22.6533 28.7766 25.4491 26.3749 30.0006 26.3749C32.2199 26.3749 33.8028 26.7894 34.9557 27.3121L33.9757 30.6809C32.7197 30.0944 31.34 29.7927 29.943 29.799C28.0407 29.799 27.1184 30.6533 27.1184 31.5927C27.1184 32.7809 28.1824 33.3036 30.7188 34.2155C34.1486 35.4313 35.7315 37.1422 35.7315 39.7673C35.7315 42.8897 33.2551 45.5401 27.9254 45.5401C25.7061 45.5401 23.518 44.9598 22.4228 44.3795L23.3162 40.9278C24.8245 41.6661 26.4892 42.0631 28.1824 42.0884C30.2 42.0884 31.2664 41.2847 31.2664 40.0712C31.2664 38.9107 30.3465 38.2498 28.0119 37.4761ZM5.13175 36.205C5.13175 29.8796 9.85621 26.3726 15.7312 26.3726C18.0081 26.3726 19.7351 26.8124 20.5133 27.1739L19.591 30.5151C18.4242 30.0454 17.1694 29.8103 15.9041 29.8243C12.4478 29.8243 9.74092 31.8391 9.74092 35.9817C9.74092 39.6821 12.0443 42.0308 15.9329 42.0308C17.2876 42.0308 18.7287 41.7844 19.6198 41.4229L20.2563 44.7364C19.4781 45.0933 17.6334 45.5378 15.3012 45.5378C8.58803 45.5401 5.13175 41.5081 5.13175 36.205ZM51.9921 61.7647H8.11966V49.4846H51.9921V61.7647ZM48.4421 45.2637H43.3141L37.0933 26.6489H41.9043L44.2653 34.5218C44.9258 36.7577 45.5311 38.8577 45.9922 41.1765H46.0787C46.5698 38.9638 47.1556 36.7713 47.8344 34.6046L50.3132 26.6512H54.9776L48.4421 45.2637Z" fill="#6EC693"/>
</g>
<defs>
<clipPath id="clip0">
<path d="M0.0325928 0H60.0791V65H0.0325928V0Z" fill="white"/>
</clipPath>
</defs>
</svg>
