<svg width="151" height="54" viewBox="0 0 151 54" fill="none" xmlns="http://www.w3.org/2000/svg">
<rect x="0.516113" width="150.116" height="54" rx="5" fill="#16CACE"/>
<path d="M40.6516 33.8108H42.3316V27.4508H44.4916L48.3316 33.8108H50.3916L46.3716 27.2908C48.5716 26.9508 49.9116 25.6108 49.9116 23.5508C49.9116 20.0508 47.0116 19.6508 44.2716 19.6508H40.6516V33.8108ZM42.3316 21.2108H44.6916C46.3316 21.2108 48.1116 21.5108 48.1116 23.5508C48.1116 25.8908 45.6916 25.8908 43.8316 25.8908H42.3316V21.2108ZM59.7782 31.1908C59.0382 32.1308 58.1382 32.6108 56.7982 32.6108C55.0982 32.6108 53.8582 31.2308 53.7382 29.6108H61.2982V29.1108C61.2982 26.0108 59.4982 24.2108 56.8582 24.2108C54.0982 24.2108 52.0582 26.2308 52.0582 29.1308C52.0582 31.8508 53.8582 34.0508 56.7982 34.0508C58.5382 34.0508 59.8582 33.5308 60.9582 32.1108L59.7782 31.1908ZM53.7382 28.2908C53.9382 26.7108 55.0782 25.6508 56.7982 25.6508C58.5182 25.6508 59.5582 26.7108 59.6182 28.2908H53.7382ZM63.7114 33.8108H65.2714V29.2508C65.2714 27.1108 66.1514 25.6508 68.1714 25.6508C69.4514 25.6508 69.9714 26.4508 69.9714 28.5108V33.8108H71.5314V28.4108C71.5314 26.7308 72.6314 25.6508 73.9514 25.6508C75.7714 25.6508 76.2314 26.9108 76.2314 28.2108V33.8108H77.7914V28.1308C77.7914 25.7108 76.9114 24.2108 74.2314 24.2108C72.8114 24.2108 71.9514 24.8908 71.2714 25.9908C70.9714 25.3508 70.3314 24.2108 68.3114 24.2108C66.7714 24.2108 65.6114 25.0708 65.1914 25.9908H65.1514C65.1514 25.4708 65.1114 24.9508 65.1114 24.4508H63.6314C63.6314 25.0708 63.7114 25.8108 63.7114 26.6708V33.8108ZM80.2027 29.1308C80.2027 32.0508 82.3227 34.0508 85.2027 34.0508C88.0827 34.0508 90.2027 32.0508 90.2027 29.1308C90.2027 26.2108 88.0827 24.2108 85.2027 24.2108C82.3227 24.2108 80.2027 26.2108 80.2027 29.1308ZM81.8827 29.1308C81.8827 27.1708 83.1827 25.6508 85.2027 25.6508C87.2227 25.6508 88.5227 27.1708 88.5227 29.1308C88.5227 31.0908 87.2227 32.6108 85.2027 32.6108C83.1827 32.6108 81.8827 31.0908 81.8827 29.1308ZM100.578 24.4508H98.8977L96.1177 31.7908H96.0777L93.1577 24.4508H91.3377L95.1577 33.8108H96.8777L100.578 24.4508ZM109.446 31.1908C108.706 32.1308 107.806 32.6108 106.466 32.6108C104.766 32.6108 103.526 31.2308 103.406 29.6108H110.966V29.1108C110.966 26.0108 109.166 24.2108 106.526 24.2108C103.766 24.2108 101.726 26.2308 101.726 29.1308C101.726 31.8508 103.526 34.0508 106.466 34.0508C108.206 34.0508 109.526 33.5308 110.626 32.1108L109.446 31.1908ZM103.406 28.2908C103.606 26.7108 104.746 25.6508 106.466 25.6508C108.186 25.6508 109.226 26.7108 109.286 28.2908H103.406Z" fill="white"/>
</svg>
