<svg width="22" height="21" viewBox="0 0 22 21" fill="none" xmlns="http://www.w3.org/2000/svg">
<path d="M19.2947 6.99996C19.1877 7.0004 19.082 6.97646 18.9858 6.92996L10.8686 2.79996L2.75141 6.90196C2.57822 6.98365 2.37957 6.9934 2.19916 6.92908C2.01876 6.86475 1.87137 6.73162 1.78943 6.55896C1.70749 6.38631 1.69771 6.18827 1.76223 6.00843C1.82676 5.82858 1.96031 5.68165 2.1335 5.59996L10.8686 1.28796L19.6037 5.59996C19.7878 5.64285 19.9476 5.75631 20.0484 5.91578C20.1492 6.07524 20.183 6.26789 20.1423 6.45198C20.1017 6.63608 19.99 6.79681 19.8313 6.89937C19.6727 7.00194 19.4799 7.03808 19.2947 6.99996ZM7.3577 14H3.14463V18.2H7.3577V14ZM12.9751 14H8.76205V18.2H12.9751V14ZM18.5925 14H14.3795V18.2H18.5925V14ZM15.7838 8.39996H11.5708V12.6H15.7838V8.39996ZM10.1664 8.39996H5.95334V12.6H10.1664V8.39996Z" fill="#828282"/>
</svg>
